/* XPM */
static char *_4ae1aead6784e1c9aec3f3576867d95xYiSlnNvAcE69j5Z[] = {
/* columns rows colors chars-per-pixel */
"32 32 162 2 ",
"   c #312614",
".  c #3B2E17",
"X  c #3B2E19",
"o  c #3E311C",
"O  c #461008",
"+  c #4E1D12",
"@  c #412316",
"#  c #4B2314",
"$  c #512C1F",
"%  c #5E281F",
"&  c #44341C",
"*  c #49361D",
"=  c #4C391E",
"-  c #52321F",
";  c #523A1C",
":  c #63281E",
">  c #71261F",
",  c #5F2E24",
"<  c #453521",
"1  c #4B3624",
"2  c #4D3B25",
"3  c #4D3D29",
"4  c #553625",
"5  c #5C3423",
"6  c #523D25",
"7  c #5D3825",
"8  c #5F3428",
"9  c #523F29",
"0  c #5D3D2C",
"q  c #5C3F30",
"w  c #622D23",
"e  c #6F2C22",
"r  c #712620",
"t  c #702C22",
"y  c #603025",
"u  c #623D2C",
"i  c #73372B",
"p  c #723C2B",
"a  c #5A411F",
"s  c #574122",
"d  c #5A4325",
"f  c #5F4825",
"g  c #54422C",
"h  c #59442E",
"j  c #5D492F",
"k  c #574431",
"l  c #5B4632",
"z  c #5D4935",
"x  c #5F4B38",
"c  c #654923",
"v  c #63452D",
"b  c #61482F",
"n  c #654B2B",
"m  c #68492C",
"M  c #6D5328",
"N  c #755627",
"B  c #725429",
"V  c #775929",
"C  c #7B5D2C",
"Z  c #614432",
"A  c #6A4732",
"S  c #6B4732",
"D  c #604831",
"F  c #604933",
"G  c #624932",
"H  c #614A32",
"J  c #614B32",
"K  c #604A33",
"L  c #624A32",
"P  c #634B32",
"I  c #634B33",
"U  c #664832",
"Y  c #614C33",
"T  c #634D33",
"R  c #644C33",
"E  c #614A34",
"W  c #604A35",
"Q  c #614A35",
"!  c #604B36",
"~  c #604B37",
"^  c #624C35",
"/  c #634E35",
"(  c #624D36",
")  c #634E36",
"_  c #654D36",
"`  c #654F36",
"'  c #624C35",
"]  c #6B4F37",
"[  c #6C4C36",
"{  c #604B38",
"}  c #604C38",
"|  c #604C39",
" . c #624D39",
".. c #634E38",
"X. c #624E39",
"o. c #604C3A",
"O. c #614D3A",
"+. c #624D3A",
"@. c #624E3A",
"#. c #634F3B",
"$. c #624E3B",
"%. c #644E38",
"&. c #644F39",
"*. c #674F38",
"=. c #644F3B",
"-. c #634F3C",
";. c #644F3C",
":. c #624D39",
">. c #684E38",
",. c #675137",
"<. c #6C5037",
"1. c #675138",
"2. c #665138",
"3. c #65503B",
"4. c #64503A",
"5. c #66513A",
"6. c #64503C",
"7. c #65513C",
"8. c #66513D",
"9. c #66513F",
"0. c #66513C",
"q. c #6A503A",
"w. c #68523B",
"e. c #69533B",
"r. c #6D5239",
"t. c #6B553A",
"y. c #6B543B",
"u. c #6C553B",
"i. c #6C563B",
"p. c #6E573B",
"a. c #69523C",
"s. c #6B533D",
"d. c #6B553F",
"f. c #6C553C",
"g. c #6E573F",
"h. c #6A543D",
"j. c #6E583C",
"k. c #6E583D",
"l. c #6F583D",
"z. c #6F593F",
"x. c #7A5D31",
"c. c #71573B",
"v. c #71563C",
"b. c #72583A",
"n. c #70593D",
"m. c #745C3D",
"M. c #745B3A",
"N. c #7D5A3D",
"B. c #6B5541",
"V. c #6B5542",
"C. c #6C5540",
"Z. c #6B5540",
"A. c #6E5841",
"S. c #745D44",
"D. c #7D5E42",
"F. c #7A6347",
"G. c #7C644A",
"H. c #865F3E",
"J. c #816041",
"K. c #84684C",
"L. c #866B50",
"P. c #8D6E50",
/* pixels */
") d.w.T T L L L t.t.w.j.j.4.m.j.4.5.@.4.4.j.t.T t.r.p p [ p.Z.) ",
"l 5.4.j h g g h ,.t.5.t.p.l b.c.l l h l z w.,.T j.<.e > A p.=.l ",
"l x w.j h h k j t.t.) x ) 0 p p G 4.4.T 4.4.0.A.j.<.e > S j._ l ",
"1 s h h h g 6 g j h g g g s v b g g 3 s g 2 h k j h 7 5 h j 2 2 ",
"o & g h h g 9 k 9 < < 1 & < < 3 1 g k h g o 1 k g x L 9 g G 2 & ",
"& 2 x 5.0.l l g < X X & o X o o & l 9.4.k o < k L L L g l C.6 & ",
"& 2 x l l l g & g l 9 x j F ] 9.k z 4.9.z g k x g 6 d g x Z.s & ",
"& 2 x ) l g 2 g x l l { F a.a.{ l z 9.x z k z x g & * j @.C.g & ",
"* 2 z ) g & 6 x @.x x @._ 0.B.{ l x ;.0.{ l z F j 6 & 6 F 5.9 * ",
"& 2 z l * & g { ) l h @.] =.@.x k x $.;.x l l k l h 6 * l 5.6 & ",
"& g z l 2 9 g x x l l z j k l g 9 x $.;.x l z l h U m 6 l 4.9 & ",
"* 2 z z l l l x x @.d.A.j x x 6 2 x $.B.x z x z l G m g z z 9 * ",
"& 2 z z z F.w.d.S.S.B.+.r.s.a.h 6 x @.0.x l x z l v n l z x 3 & ",
"& 2 z x k z @.@.z 9.{ 0 h k w.l 6 x $.;.x z x l l b m l z x 9 & ",
"& 2 z z 0.Z.9.Z . g l 4 0 k =.l 6 x ;.0.x l x l l G v l z 4.2 & ",
"& 2 4.4.$.Z.9.l + 0 9 < 2 x G.S.v.@.@.@.$.Z.S.=.F J.N.d.x @.9 & ",
"& 2 =.{ 3 k =.l # g k l g k l g g @.g l x k z x x l n h x x 2 & ",
"& 2 @.F k l 1 @ # k z z g h 2 1 6 F =.5.z 3 3 z l < X & z x 2 & ",
"& 2 =.=.A.;.$ O + k z l g 0.S.S.v.x L @.A.F.K.Z.m.J.H.S.A.l 2 & ",
"& 2 a.=.=.;.L g Z =.l x l A.Z.l _ @.x x 9.Z.Z.Z.0.N.N.x 5.x 2 & ",
"& 2 w.x l x x l x ) l x l C.;.l x @.@.x x @.@.0.0.r.v.g @.x 2 & ",
"& 2 _ g g x l l l x 0 , l ;.F k z @.x @.x l l _ 5._ _ g z ) 2 & ",
"& 6 ) 9 g F x x x x l , l g X . & 9 3 3 2 o & l l 1 * o 9 l 9 & ",
"& 2 @.g g l x { { x q , l h l l 2 X . X & 2 k l l c c a n z 2 & ",
"& 6 [ l l { x x x x z l l g =.) x @.k l k x z z x F 0.5.l j 9 * ",
"& 4 : l x { x x x @.l 8 l l @.@.L @.l l z Z.S.$.l x Z.x 4 : 4 & ",
"& * 0 x l F l ;.z 9.F.G.{ l =.@._ w.x $.A.P.K.A.z x 0.x l 7 1 & ",
"& & @.@.l l l @.x x Z.F.C.a.K.F.K.K.S.F.F.Z.j l l k z z k l * & ",
"l t.d.) g g j ,.A.j.d.j.d.j.S.0.S.m.w.w.z j.,.l ] j n ) 4.t.T h ",
"g u v z 1 * & a < s * ,.0.=.@.x _ =.@.r.g f & = * ; & 6 4.v u g ",
"0 , 5 9.j.s V M M n C m.g 3 3 3 3 3 2 9 0.x.n B f N f x.] , % 6 ",
"< 1 1 3 g g g h g g h 3   X o o o o X   < g j 3 g 3 9 3 3 1 1 X "
};
