/* XPM */
static char *_236fab184a048088ab3e8f1658445ebjLl99w6BZZVVl736[] = {
/* columns rows colors chars-per-pixel */
"32 32 117 2 ",
"   c #1B1B1B",
".  c #322B1E",
"X  c #212121",
"o  c #2D2D2D",
"O  c #322C25",
"+  c #302E2D",
"@  c #3B3224",
"#  c #3D362A",
"$  c #2F2F30",
"%  c #353535",
"&  c #3B3735",
"*  c #333931",
"=  c #3B3936",
"-  c #373838",
";  c #3C3C3C",
":  c #49271F",
">  c #4D2B1C",
",  c #47351D",
"<  c #4D381D",
"1  c #583E1F",
"2  c #4B2121",
"3  c #4B2E2E",
"4  c #4D3920",
"5  c #42362E",
"6  c #48352B",
"7  c #533D20",
"8  c #503929",
"9  c #463737",
"0  c #493535",
"q  c #423D35",
"w  c #453D3B",
"e  c #4B3C3C",
"r  c #374334",
"t  c #394536",
"y  c #5C4224",
"u  c #45413C",
"i  c #4A433A",
"p  c #5A4936",
"a  c #56493C",
"s  c #5B4B3C",
"d  c #6C4927",
"f  c #6C4A29",
"g  c #644A31",
"h  c #654F39",
"j  c #665136",
"k  c #765232",
"l  c #7C5635",
"z  c #3C3744",
"x  c #4E3F40",
"c  c #413A52",
"v  c #434343",
"b  c #494544",
"n  c #4C4945",
"m  c #474848",
"M  c #4A4A4B",
"N  c #4B4B4B",
"B  c gray29",
"V  c #494949",
"C  c #4D4848",
"Z  c #4F4849",
"A  c #4E4B48",
"S  c #4C4B4A",
"D  c #4B4C4B",
"F  c #4F4C49",
"G  c #4D4C4B",
"H  c #4E4C4B",
"J  c #4A4B4C",
"K  c #4B4B4C",
"L  c #4B4C4C",
"P  c #4C4C4C",
"I  c #4D4C4C",
"U  c #4C4D4D",
"Y  c gray30",
"T  c #4E4C4C",
"R  c #4E4D4C",
"E  c #4E4D4D",
"W  c #4D4D4E",
"Q  c #4E4E4E",
"!  c #4E4E4F",
"~  c gray31",
"^  c #514B47",
"/  c #504D4A",
"(  c #505050",
")  c #515151",
"_  c #515152",
"`  c #515252",
"'  c gray32",
"]  c #535353",
"[  c #555453",
"{  c #535354",
"}  c gray33",
"|  c #555555",
" . c #565656",
".. c gray34",
"X. c #585858",
"o. c #5A5A5A",
"O. c #5B5B5B",
"+. c gray36",
"@. c #5C5C5D",
"#. c #5D5D5D",
"$. c gray37",
"%. c #5F5F5F",
"&. c #6A5441",
"*. c #606060",
"=. c gray38",
"-. c #636262",
";. c gray39",
":. c #656565",
">. c #81562F",
",. c #8D5C36",
"<. c #845B39",
"1. c #8B603C",
"2. c #9D663D",
"3. c #896448",
"4. c #8B654A",
"5. c #956C4F",
"6. c #966D51",
/* pixels */
"v v v m % = m u z m * - m v v m - - % - m m x m - - m v - v m v ",
"- ; w u % % t ; - x $ % v ; ; ; % % % % ; v - ; $ % t u - w x - ",
"- . y <.k 4 + ; - - % - ; ; * * ; ; - ; i e ; t ; . y <.k 4 o - ",
"; @ d 2.,.7 # x 3 3 3 3 w v r r b n m b a s b m v @ d 2.,.1 # v ",
"v 5 < d y , w m w e 9 w x x v m a g b b a s b m b q < d y , w v ",
"- - O 5 @ O ; - - - - % % % ; - ; ; - t = w = ; - - O 5 @ O - - ",
"& w % ( m % ; v ; v v ; - ; - ; w v ; z n z u m v ; $ ' m $ t w ",
"u ; % $.' % m W U J m v ; - - ; ; ; m - ; m m ` Z v % %.{ % v w ",
"u v % $.{ - b m m m M v M M W W n m m z % ; v ! L v - %.{ % b e ",
"u u % $.{ - m m m Z M m W W / W M m v M v $ ; ! M v % %.{ - m w ",
"u u % %.| - b m M m m m M m m m v v v T ( ; - ! D t - %.| % b u ",
"u v % %.{ - m m m M M ( ' b m M t ; v Z ( m t G D v % %.| % v u ",
"t x % %.| - m W ' Z M T W T ( _ T ; m M ~ G v M U v % %.| % b u ",
"v v % %.| % m T T M T b c W m m M z b M W W v M L ; % %.| - v v ",
"z z - %.| % m T T v v w z m m m Z t v M ` L m L L ; % %.| % v ; ",
"v t % %...% t W M v y 4 7 a m M X.~ M ..O.o.' W L ; % %. .% v v ",
"v ; % $.} % v M D n j i j b M M m v m m M M M Z M ; % $.| % v ; ",
"v ; % $.| % v M L n M ' M e i m v x m z ; ; ; M M ; % %.| % v v ",
"; t % $.| % v M W m M ' M 0 e M v v | %.%.=.$.W M ; % %...$ v v ",
"z x % $.[ % v M M m G W M M M m v v ! ` { _ _ M m ; % $...% x t ",
"v ; % %.| % v G G m m M m M D [ O.` W W G G T M m ; % %...$ v v ",
"; v * %.| - m M M n m M M n m M ` D W D m v m T J z % %...% v v ",
"v v % *.| % m M n M M M v - - ; ; z v v ; t M T L ; % %...% v v ",
"z v % @.| % m D M G G M m W D b t ; = ; m M m T L v % @.{ % v v ",
"m M q &.s q G n b M M M b ~ G A F m b m G M M M L M 5 &.s & / m ",
"v i 2 >.d : Z e 2 b Z W m W G A G n b M X.$.( M G b > >.d : C v ",
"; v 8 ,.l 6 m b e W W ` M ' ' } } ~ ' o.:.+.` M Z w 8 1.l 6 v w ",
"m i h 6.4.p b M L D M L } =.$.;.=.O.$.| G v M W ` u h 5.3.p b m ",
"M W [ G n W M D ` _ ` _ W ' ` m ^ / n m v W _ L ' ( n M M n | M ",
"; ; ; - - ; - ; v v ; v u ; - = = ; ; v m v m v ; - - - ; - v ; ",
"% o o o o o $ o % v ; - o o o o o $ o o v v u $ o o o o o o o % ",
"    X X X X X     o X X   X X X X X     X X X     X X X X     X "
};
