/* XPM */
static char *_dbd0a80e24a4f94dfcf34091d3c1c4caY1cJQrjBPiepRAk[] = {
/* columns rows colors chars-per-pixel */
"32 32 58 1 ",
"  c #070707",
". c #0D0C0B",
"X c #100E0B",
"o c #13120E",
"O c #131313",
"+ c #191713",
"@ c #171911",
"# c #1C1B16",
"$ c #1C1D18",
"% c #1F2114",
"& c #1F2118",
"* c #202417",
"= c #23241D",
"- c #222A1E",
"; c #2A2D1E",
": c #252624",
"> c #282624",
", c #262C25",
"< c #2A2924",
"1 c #2C2C2A",
"2 c #312E26",
"3 c #302E2A",
"4 c #2E3126",
"5 c #2F312C",
"6 c #313326",
"7 c #353B26",
"8 c #32332D",
"9 c #3B362E",
"0 c #363A2E",
"q c #3B3D2E",
"w c #353633",
"e c #373933",
"r c #3A3C34",
"t c #3C3C3A",
"y c #41392F",
"u c #3D422D",
"i c #3E4233",
"p c #3F403B",
"a c #40472F",
"s c #434A2F",
"d c #414633",
"f c #4B4633",
"g c #454B34",
"h c #41433B",
"j c #454A39",
"k c #494C3B",
"l c #4C5237",
"z c #4D523C",
"x c #50553B",
"c c #52583F",
"v c #484A41",
"b c #505440",
"n c #585E44",
"m c #5B6246",
"M c #5E634A",
"N c #61664C",
"B c #656A4E",
"V c #696E52",
/* pixels */
"tt13twttteipuitptt11twtttrhlsipp",
"tp<8twttirrpsipptt>5twtttrjxlgpp",
"tt<3wwttt0eriihptr<3wwtrr0ilggpt",
"11<>::11,<:<0811188811111rrre811",
"tt99wwwteeerfr1rt<gMngxgxNx6uj1e",
"ty9ywwtttrqrfi1r1+3xVnBmBn9#=k1r",
"pp9ywwttttrqfd19+X$dNmnmNk=oor1r",
"tpeywwtttriqfh3eoXX8ku7ukqooX88r",
"ttwtwwwtttiedh2wO.@7-o6@*6&..r2r",
"tpwwwwwttpruip2r# %dd0Bdql4.Oh3r",
"ttw8wwwteteeip4t: <;uuguu64.=v2e",
"11,&:111,1,,55:,1:=@+%o%+#<<3r>1",
"wt:,wwwwwer0iuepwt:,=7;7-4ighhri",
"wt11wwwwtrpiuuuptt:18rgu8iildprp",
"ww:1wwtteutpispptt11tweweipjsitp",
"tt:1twttrerpuipptt<1wwttrrpjsipp",
"tt<1twttprhlsitptt15twttttipiupp",
"tt<3twttrrjxgjhhtt18twttttrpdipp",
"tt>1wwtreeizggttyt<3wwttweeriipp",
"138e5:114r0ie81111>>::11:,:10w11",
"t<gMndbgcNz6aj19tt99w5twreerfi1e",
":+3bVmBmBn9$=k1rptyywwtttr0rfi<r",
"oX#dMmnmMz=oXr2rtptywwtpttiufd1r",
".oX6lu7ukqooX83ttpwywwyptrpyyd6t",
".X@7=o7@$4*..r2ttpeewwwttirqdh6r",
"O &ddqNiul4.oh3rtew0wtwttiirip<t",
": >;iugur44O&v1rtwwwwwwttteerh3e",
">=:@O%o%+#,,8e<111:-::11:,1:38>3",
"tt::=7;7;4ijpptttt:,wwwwwereiurr",
"tt<38udu5riggpiptt:1wwwweiiiduip",
"tt<<twreeuplsittwt,1wwtteetpsitp",
"tt<1wwtttrplsittwt,1wwttruihuutp"
};
