/* XPM */
static char *result[] = {
/* columns rows colors chars-per-pixel */
"128 128 51 1 ",
"  c #574333",
". c #3F2F17",
"X c #775F4B",
"o c #9F8363",
"O c #332B13",
"+ c #8F7753",
"@ c #5F4323",
"# c #836B4B",
"$ c #6B4727",
"% c #AF7B1F",
"& c #170F07",
"* c #533F1F",
"= c #774F2B",
"- c #9B7F6B",
"; c #875733",
": c #7F532F",
"> c #5B0707",
", c #8F5F37",
"< c #9B633B",
"1 c #AB6F43",
"2 c #831F1F",
"3 c #A36B3F",
"4 c #972F2F",
"5 c #771717",
"6 c #8B2323",
"7 c #B37347",
"8 c #BF7B4B",
"9 c #9F876F",
"0 c #CF8353",
"q c #8F2B2B",
"w c #6B0F0F",
"e c #A33B3B",
"r c #D78B5B",
"t c #CB7F4F",
"y c #F7AB7B",
"u c #070707",
"i c #FFBB93",
"p c #4F3B23",
"a c #67533F",
"s c #775F3F",
"d c #5F4B37",
"f c #6F5743",
"g c #43331B",
"h c #2B230F",
"j c #4B371B",
"k c #4F0000",
"l c #1F170B",
"z c #670B0B",
"x c #731313",
"c c #7F1B1B",
"v c #430000",
/* pixels */
"pffssfaa ssdssasssasssasssasssasfssaaf ssadasassssss ssssssssss adaaaaa aaddadaaaapsfafssffsffssfsssss sssssfffsfs ssss aafssffp",
"hffssfaa ssdssasssasssasssasssasfssaaf ssadasassssss sspsssssss adaaaaa aaddadaaaapsfafssffsf   j  sss sssssfffsfs ssss aafssffh",
"hffssfaa ssaspvpspvpspvpggvpspvpfssaaf ssadasasssss asppsssssss adaaaaa aaddadaaaapsfafssffsf ssss sss s ccccccc s ssss aafssffh",
"hpfssfaa ssasp psp psp     psp pfssaff ssadasassss aap psssssss addddd  aaddadaaaapsfafssfppppppss sss kzxxxxxxxzk ssss aafssfph",
"hpdaad    pjpp p p p p     p p pp pjpp    p            psssssss aaaaaaadaa dadaaaapad daadp    pss sss s zzzzzzz s ssss   daadph",
"hpfssfaa ssasp psp psp     psp pfssssssssaaasasssssss  psssssss  jpjpjpjpjpjpjpjpjpsfafssfppppppss sss sssssfffsfs ssss aafssfph",
"hsfssfaa ssasp psp psp     psp pf s s s s a s s s s s  pssssssssspspspspspdpspspspssfafssfsss ssss sss s ccccccc s ssss aafssfsh",
"l    ppp ssasp psp psp     psp pfssssssssaaasasssssss  psssssss  j j j j jpj j j j  pjp    ss ssss sss kzxxxxxxxzk ssss jjp    l",
"l fssfaa ssasp psp psp     psp pfssssssssaaasasssssss  psssssss sdsdsdsdsdddsdsdsdssfafssf ss ssss sss s zzzzzzz s ssss aafssf l",
"h fssfaa   p p p p p p     p p pp        ppp p        kxxxxxxxxxksssssssssdssdssssssfafssf ss ssss sss sssssfffsfs ssss aafssf h",
"h f  paa ssasp psp psp     psp pfsssss ssaapdap       kxxxxxxxxxks   s   sp  d   s  pap  f ss ssss sss s ccccccc s ssss aap  f h",
"h f spaa ssasp psp psp     psp pfsssss ssap dp         psssssss ss s s s sps d s s spaps f ss ssss sss kzxxxxxxxzk ssss aaps f h",
"h   sppp ssaspppspppspppgggpspppfsssss   pa ppppppppppppsssssss    s   s  ps   s   sppps   ss      sss s zzzzzzz s ssss ppps   h",
"hss spaa ssassssssssssssaaasssssfsssssaddaa ssssssssssssssssssssss s s s sps d s s spaps sssssssssssss sssssfffsfs ssss aaps ssh",
"hpphphpppppgppppppppppppgggpppppgppppppjjpjgjppppppppppppppppppppphphphphphphphphphphphphppppppppppppppppppppppppppppppppphphpph",
"l..h.h.....h............hhh.....O.........OhO.....................h.h.h.h.h.h.h.h.h.h.h.h.................................h.h..l",
"hg..O.hg ppp  p pp p   p.jg   pp p   p jpgp     .jgpjp p*   p d  ppp p  p   d .p   pp ppp       .g  p p    p  pgp p   : ghpjjjgh",
"hg..O.hg ppp  p pp p   p.jg   pp p   p jpgp     .jjpjp p*   p d  ppp p  p   d .p   pp ppp       gg  p p    p  pgp p   : ghpjjjgh",
"hgg.Opg adddaddaddadaaa j  daaddadaaa a  p aaaaap @ p a =aaa aXaadddadaadaaa#ap aaa  adddaaaaaaaj@adsd aXXa aa @ aaadd1a gppppgh",
"h*df pg ad #addaaaaas X j  daa Xadghhhhhhhhhhhhhhhhhhhhhhhhhhhhhhhhhhda p   #ap aajhhhhhhhhhhgaap@sa a a:#Xppppgppaa #7a gpdf *h",
"h*gpgpg adpOaddaaaaaajO j  daajhaghhhhhhhhhhhhhhhhhhhhhhhhhhhhhhhhhhpda daa #ap aajhhhhhhhhhg aa @Xsa#sa:j#p aa@ paapOoa gpgpg*h",
"h*.h.pg addpaddaaaaaa   p  daap ggghhhhhhhhhjjjhhhhhhhhhhhhhhhhhhhgj da daa #a  aa jhhhhhhhg  aa @adas##sj: g a@ paadp-a gp.h.*h",
"h*...pg add addaaa Xa   p   Xap.ggpjggg.Ohggj j.O.g.O...gggg.gpgggpj da daa #a  aa  j.g..gg   aa @   jj. Xa  . @ paad -a gpg.g*h",
"h*...pg add addaaapOa d pd jOdO.gg p   pjgp j j pp@p j p@   p d  p j da daa #a  aa  p.p p     aa @jd *jj. X  pg* paad -a gpppp*h",
"hg.jOpg adddaddaaa pa d pd p gO.gpdpd d pgpdpdpdpp@pd d $ddd dfdd  j da daa #a  aa   . d d    aa @ g *jj.. sdp j paadd-a gpjjjgh",
"hg.jOpg ad sadd #a pa d ;3 pggO.gpdpd d pj apapad $ a a ,aaadasad  j da daa #a  aa   g d a    aa @ gg* :j.jjdp @ppaa s-a gpjjjgh",
"hggpOpg adpOaddpOa pa d @h .gg.g pa add pj a a ad $ a a ,aaadasad  j da daa #a  aa   g d a    aa @  gg @=$j.j a@ paapO-a gppppgh",
"h*df pg add add ja pa d $@g.jp.j  a dafdpj a a ad $ ada ,aaadasad  j da daa Xa  aa   g d a    aa @  gg.*@,=jjas@ aaad -a gpdf *h",
"h*gpgpg add fdd ja padX $ggj ppjd a d @apj a a ad $ adad3aaadasad  j da daa Xa  aa   g d a    aa @  pg..j$@jp d@ aaad -a gpgpg*h",
"h*.h.pg adddfdd jadpajO jgjp   pa a d =p j a a ad $ adadt  pjp ad  j da daa Xa  aa   g d a    aa @  pg.h.@* asd@ aaadd-a gp.h.*h",
"h*g.gpg sd dfdd pad a  pggppd  pa a d  p p a a ad = adad- aada ad  p da daa Xad aa   g d a   dXa @  pg.h..*g$aa@ aaa d-a gpg.g*h",
"h*jpgpg s  #fdd pa Xa g.gg pd  pa a da   d a a aa = adad- a da ad  p da daa Xad aa   jdd a   dsa @  pp.h..hjg a@ aaa #-a gpppp*h",
"h*jpgpg a pOfdd  ajhdggjg.  d  pa a ddda   a a aa = adad- aada ad  p da daa Xad aa   jdd a    aa @  p .h.hhpd a@ aaapOXa gpppp*h",
"h*jpgpg a apfddd apj ggjgg  a   a a d dd p a a aad= adad- a da ad  p aa daa Xad aa   jdd a d  ff @  p p..hh.p a@ aaaapXa gpppp*h",
"h*df pg a adfdd Xajggg.g.p da   a a d d  p a a aad= adadX aada ad  p aa daa Xad aa   jad a   dXs @  p p*.hhjgjd@ aaaadXa gpdf *h",
"h*gpgpg a ddfddghdg.gg.jgp da dXXsasXsXdadsXsa aad= adadX a da ad  p aa daa sad aa   jad a  d*$s @  p d@*ghg.jg@ aaaddXa gpgpg*h",
"h*.h.pg a ddfdd$ p..g.j.gpdda aaaaaaadap p aaa aaa: adadX aada ad  p aa daa sad aa   jadda  jg d @  p d$@jhgjggg aaaddXa gp.h.*h",
"h*g.gpg a  #fdd@pg...j.gppdda  jgpapggg..h.gpa aaf: adadX a da ad  p aa daa saa aa   jaddf djjda @  p a=$j*.jggggaaa #sa gpg.g*h",
"h*jpgpg a pOfddg.g..jpggppdda   a a d d  p a a aaf: adads aada ad  p aa daa saa aa   jadfX jgjaa @  p a=$j*g.gggp aapOsa gpppp*h",
"h*jpgpg a dpfddp.g..p jjppdda dXXsasXsXssssXsa aaf: adads      ad  p aa daa saa aa   jadsf jjjXa @  p a=$j$pjgjgg aadpsa gpppp*h",
"h*jpgpg a d fddp.g.p  pjppdda aaaaaaadap   aaa aaf: adaasaaadaaad  p aa daa saa aa   jaada j j$a @  p a=$*$p jggg aad sa gpppp*h",
"h*df pg a d fddpp.gpd pjppdda  jgpapggggggggpa aaf: adaasaaaaaaad  p aa daa saa aa   padaa    aa @  p a=$@$pd jg  aad sa gpdf *h",
"h*gpgpg a   fddppjj d  jppdda   a a d d  ada a p p p p p p p p p pjp aa daa saa aa   padaa  d aXa@  p a=:$=pda .  aa  sa gpgpg*h",
"h*.h.pg a  #fddp pj d  pppdda   a a d d dada ap.p.p.p.p.p.p.pO.O.h.p aa daa faa fa   padaa  j  $a@  p s=$==pda .  aa #sa gp.h.*h",
"h*g.gpg a pOfdd   p d  pppdaa   a a d d dXXXdad   jp p p p p ..pggpp aa daa faafXf   padaa  j    @  pa#;$@$pda g  aapOaa gpg.g*h",
"h*ppgpg dd pfdd   p d dpppdaa   a a dXoXdaX####ffdjp       a gg jjpp aa daa fasdfa   padaa  j aa @  pds<;*$pda g  aa paa gpppp*h",
"h*ppgpg dd  fdd  d  d dpppdaa   a a d a d aXoooXa $ adaaaaasajg @jpp aa daa faa aa   padaa  pdaa @  p a$$*$pda j  aa  aa gpppp*h",
"h*ppgpg ddd fdd  d  d dpppdaa   a a d a d         $ adaaaaasapg @jpp aa daa faadfa   padaa    aa @  p a@@*=pda j  aad aa gpppp*h",
"h*df pg ddd fdd  daXXXXsppdaa  sd a X a X  aaaaa  :aXaXXaaasapj @jpp aa daa fafdaa   padaa  d aa @  p a=$.;pda p  aad aa gpdf *h",
"hggpgpg dd sfdd  d a+oo+spdaa s+ss+s+sas+s aaaaa s3s+s+a aasa j @jpp aa daa fasdaa   padaa  p aa $  p a=$.<asa p  aa saa gpgpggh",
"hg.h.pg ddpOfdd  d paoooosdaasooXXoXooooo+ aaaaa +tsX#a  aasa j @jpp aa daa fafdaa   padaa  p aa $  p a:$g; @  p  aapOaa gp.h.gh",
"hgg.gpg dd  fdd  d p aadaadaaaaa da aaadaa apapa  @p p   aasa j @jpp aa daa aaadaa   padaa  p aa $  p a:$g$  a p  aa  aa gpg.ggh",
"hgppgpg dd  fdd  d p  adad dddda da aaadaa aaaaa  @p p   aasa j @jpp aa daa aaadaa   padaa  p aa $  p a:$j=as @   aa  aa gppppgh",
"hgppgpg dd dfdd  d p  adaddaaada dadaaadaa axaxa  @p p   aasa j @jpp aa daa aaadaa   padaa  p aa $  p a:$j;s<@j   aa daa gppppgh",
"hgppgpg dd dfdd  d p  adaddaaada dadaaadaajgzgzgj $pap   aasa p @jpp aa daa aaadaa   padaa  p aa $  p a;$j;d@@p   aa daa gppppgh",
"hgdf pg dd #fdd  d p  adad dddda daaaaadaaaazazaa $p p   aasadp @jpp aa daa aaadaa   padaa  p aa $  p a;$p@       aa #aa gpdf gh",
"hggpgpg ddpOfdd  d p  adaadaaaaghllllgadaaaazazaa $pap   aasadp @jpp aa daa aaadaa   padaa  p aa $  p a;$p* da    aapOaa gpgpggh",
"hg.h.pg ddadfdd  d p  adaadaaaaphhhhhpadaaaakakaa ppap   aasadp @jpp aa daa aaadaa   padaa  p aa $  p a;$ $ da    aaadaa gp.h.gh",
"hgg.gpg ddaafdd d##+saadaadaaea kkkOO adaaaa a aa ppap   aasadp @jpp aa     aaadaa   padaa  p aa $  p a;$ $  a    aaaaaa gpg.ggh",
"hgppgpg daaafdddX++oooo+#adaapa vvz.. adaghhhhhhhgppap   aasadp @jpp aaadaaaaaadaa   padaa  p aa $  p a;$ $  a    aaaaaa gppppgh",
"hgjjOpg daaafdda  a aaaa adaa a h.z.. ada ghhhhhgjp ap   aasadp @jpp aadsssssssdaa    adaa  p aa $    a;$ $  d  p aaaaaa gpjjjgh",
"hgppgpg da #fdda  a aaaa adaaea zzz.. ada pghhhgpjp ap  aXXXXXas<:ap aa aaaaaaa aa  a   XXXa  aa $  aXs<;a:  d  p aa #aa gppppgh",
"hgdf pg dapOfdda  adaaaa adaapa vvz.. ada pjp   pjp ap aX+oo+XsX8<Xa aa a aaa a aa aXasaoo+Xa aa $ aX++17X;as+sss aapOaa gpdf gh",
"hggpgpg daadfdda  adaaaa adaa a h.z.. ada  j dd pjp ap Xoo99o+a-0--X aa aajgjaa aa XoXXXooooX aa $ Xooo00X0s7ossd aaadaa gpgpggh",
"hg.h.pg daaafdda  adaaaa adaaea zzz.. ada  j aa pjpdap aadaddap @@ a aapppp ppppaa aa adaaaaa aa $ ada ==d3adaddd aaaada gp.h.gh",
"hgg.gpg dfaafddjhhhhhggp adaapa vvz.. ada  j aa pjpdap aada dap @@ a aadgp d pgdaa aa adaaaaa aa $ ada ==a3adaddd aaaada gpg.ggh",
"hgppgpg dfaafdd jhOg  d dadaa a ..z.. ada  j aa pjpdap aada dap @@ a aaddg aagdaaa aa adaaaaa aa $ ada ==a3adaddj aaaada gppppgh",
"hgjjOpg df sfdd  p p  d dadaa a ..z.. ada  j aa pjpdap ghhhhhhhhhhhg aada@ aa@daaa jhhhhhhhhj aa $ jhhhhhhhhhhhhj aa sda gpjjjgh",
"hgppgpg dfpOfdd    p  d dadaa a ..z.. ada  j aa pjpdap p.hhhhhhhhhgp aada@ aa@daaa  ghhhhhhg  aa $  jhhhhhhhhhhhp aapOda gppppgh",
"hgdf pg dfddfdd  d p  d dghhhhhh..z.. ada  j aa pj dap  jOOhOOhOj.j  aada@ aa@daaa   ghhhhg   aad$   jhhhhhhhhhh  aadd a gpdf gh",
"hggpgpg dfadfdd  d p  d d llllll..z.. ada  p aa pj dap  p  p  p jpp  aada@ aa@daaa            aad=    O..O*OOOOO  daad a gpgpggh",
"hg.h.pg dfaafdd  d p  d d kkkkkkzzz.. ada  p aa pj dap   aa aa a:p   aaddXsasXdaaa    adaa    aad=     **p=p      daaa d gp.h.gh",
"hgg.gpg dfaafdd  fap  dad vvvvvvvvv.. ada  p aa pj dap  aasdssas;a   aad asXsa aaa  aasasssa  aaa=  asd=$d3 sssss daaa d gpg.ggh",
"hgppgpg df sfdd asXa  dad ........... ada  p aa pj da  aXaXassaX<aa  aad aaaaa aaa s+s+s+++Xs aaa= sXXa,:a0aXsssosda s d gppppgh",
"hgppgpg dfpOffd s#ooa d d kkkkkkzzz.. ada  p aa pj da a++X+sXXas1a+a a dpjpp   a as+o#o#ooo+Xsaaa:sooos3,s0s+XsXo+dapO d gppppgh",
"hgppgpg dfaaffd+X+oo+adad vvvvvvvvz.. ada  p aa pj daaoooXoXXXs88sXoaaddd d dddada+ooXoXooooo+aaa:+oo7787Xy37XsXo+dadd d gppppgh",
"hgdf pg dfffaaddpdaaaadad .......vz.. ada  pdaa pj daaXXa X  p a@pdaaadd p p   adaaaadadaaaaaaaaa adad,3,p-pd g pd#add d gpdf gh",
"hggpgpg dssfaaddpdaaaadads+XssX+sX+++sada  pdaa pj daasXa X  p a@pdaaadd dadaa adaaaadaaaaaaaaaaa adad=1;p-pd g pdXadd d gpgpggh",
"hg.h.pg asfsaaddpdaaaadadaad  da daadaada  pdaa pjddaasXa X  p a@pdaaadd dadaa adaaaadaaaaaaaaaaa adad=1;p- d g pdXadd d gp.h.gh",
"hgg.gpg asssaaddpdaaaadadaad  da ddadaada  pdaa pjddaasXa X  p a@ daaada dada   p             asadadad=7;p- d g pdXadd d gpg.ggh",
"hgppgpg        pgp ddd d d pjjp jpp ddada  pdaa  jddaasXa Xd p a@ daaada dada aadaaaaaaaaaaaa aXsdadadp8;p- d g pdXaad d gppppgh",
"hgjjOpg assaaaadpdaaaadadaaa  da aaadaada  pdaa  jddaafXa sd p a@ daaada dada   p             asadadadp8< - d j pdXaad d gppppgh",
"hgppgpg assaa   p   a p d   ppp p     ada  pdaa  jddaafXadsd p ap daaada dadad adaaaaaaaaaaaaasaadadad -< s d j pdsaad d gppppgh",
"hgdf pg assaa a p a a a d aa adadaaad ada  pdaa  jddaafsadsd p ap daaada dadad adaaaaaaaaaaaaaafsfadad s< s d j pdsaad d gpdf gh",
"hggpgpg assaa a p a a a d aa adadaaad ada  pdaa  jddaafsadsa p a  daaada dadad adaa  aa  aa= afs;sadad s< s d p pdsaaa d gpgpggh",
"hg.h.pg aspjjg.g..gjjjjjppjj.adgdgagd ada  x222x jadaaffadsa p a  daaada dadad adaappaappaa*gas;@ aaad a< a d p  dsaaa d gp.h.gh",
"hgg.gpg as aad dp dadaaaaaaagadpdpapd apa  kkkkk padaaafadsadpda  daaada dadad adaa paaa aa$*aad  aaad d< a d p  dafaadd gpg.ggh",
"hgppgpg aspaad dp dadaaaaa ajadpdpapd ada  p   p padaaafadsadpda  daaadapp j  padaa paaa aa$*aassdaaad  < d d p  dafaadd gppppgh",
"hgppgpg as aad dp dadaaaaaaapadpdpapd ada   aaa  padaphhhhhhhhhhhhhjjada  d ad adajhhhhhhhhj.  ;sdp.....@............add gppppgh",
"hgppgpg aspppg.gpppppppppppppad d a d ada  x222x pada phhhhhhhhhhhjjjada  d ad adajjhhhhhhh.    adpdad   d dd p  daa.add gppppgh",
"hgdf pg asaad p p dadaaaa aaaadaddadd apa  kkkkk pada pjhhhhhhhhhjjjjada  d ad adajjp.hhhh@p  d adpdp&&&&&&hl&&&&&pa.add gpdf gh",
"hggpgpg as  pg.ggpp      p   adaddadd ada  p   p pada pjpgjgg.gg.jjjjjhhhhhhhhhhhjjjjp.hh@ p  d adpd &&&@@@@l&&&j@ a.add gpgpggh",
"hg.h.pg as ad p p dadaaaaaaa adaddadd ada   aaa  pada pj  d  p ppjjj.hhhhhhhhhhhhhjjjjp p  p  d adpd ll%%%% hll%=% a.add gp.h.gh",
"hgg.gpg as pjg.gjjpp     p   adaddadd ada  x222x pada pj dadd dppjjjhhhhhhhhhgghhhhjjjpdpd p  d adpd l=%%%h hl$%=% a.aad gpg.ggh",
"hgppgpg asaad pd  aadaaaa aaaadaddadd apa  kkkkk pada pj asda a pjjhhhhhhhhhOhg.hhhgjjpa a p  d ad d $=%%hh h@$%=h a.aad gppppgh",
"hgppgpg asaaa pdjppppp  a aaaadaddadd ada  p   p pada pj asdX Xap   p p pp ppj@ p g    a a    d ad d $=%hhh %@$%hh a.aad gppppgh",
"hgpp pg afaaadp paaadaa a aap pa   dd ada   aaa  pada pj asda =a  dd d dppdppdjppdgddd ada    d adpdsaasXXX+XasXsXXa.aad j pppgh",
"hgpppaOgafaaadp p   daa a aapa a a dd ada   aaa  pada pj asXs     daaa a  d paa pdpdaa ada    d adpdd  ddafXa  d daa.aadjappppgh",
"hgppppajpfaaad dp a daa ajp pa   a  p ada   aaa  pada pj asfX a a dasXaa  d paXd dpdaa ada    d adpdd  ddaaXa  d daa.appapppppgh",
"hgpppppjpfaaad d    daa addapa a a adaada   aaa  pada pj asds ad*fdap=sa  d aas@ dpdaa ada    d ad dd  ddaaXa  d dgg.apappppppgh",
"hgpppppzq445pd d aaadaa addajp a a adaada  x222x pada pp asda adj*sX  da  d p d pdpdaa ada    d ad dd  ddaaXa  d spw444qppppppgh",
"hgdf ppvkkkvpd d   pjp  addaddaa a adaapa  kkkkk pada pp asda ad  f$ ada  d pj   d daadaaaa   d adpdd  adaaXa  d dpvkkkvpppdf gh",
"hggpgppjpaaaad daaaadaaaaddaddaa a adaada  p   p pada pp asda ad fd; ada  d paa  d daadasX+Xa d adpdd  adaasa  d pgg.apapppgpggh",
"hg.h.ppzq445pd aaaaadaaaaddaddaa a adaada   aaa  pada pp asdadad  d: ada  d paa  d daasX+++oXXd adpdd  adaasad d jp5444qppp.h.gh",
"hgg.gppvkkkvpd a$ aa  aa $ addaa a adaada  sXsa  pada pp asdadad  d, ada  d  aad d dsX+ooooooad ad dd dadaasad d .pvkkkvpppg.ggh",
"hgpppppjpaaaaa a.jaa.paajj addaa  padaada s++Xs  pada  p asdadad  d,dada  d  aad  dX++oroooXXXd ad dd dadaasad d  XX.apappppppgh",
"hgppppOjpaaaaa agpaagpaap@ addaaaadadaadas+oo+Xs pada  p asdadad  d,dada  dd aa dfXXX8r#oXaa$Xd adpdd dadaafad d daa.appOpppppgh",
"hgpppOhOdaaaaadagpaaj aap$ addaa   adaada+99oo+Xapada  p asdadad  d,dada  dd ddfs+X+o##XaXaassa adpdd dadaafad d daa.aaahOppppgh",
"hgppOh.jdaaaaadagpaap aap$ addaa a adaadadX+99o+s ada  paXXs#sssass8XXsXsdsXXssXsoX+oXasXdas  sdadpda dadaafaa d daa.aaa.hOpppgh",
"hgpphO.jdaaaaadaj aap aa $ addaa ppadaadadadX+99+sada  aX++s+sX#fX#r++X#XaX++XsX#o#XasXXd@a    dadpda dadaafaa d daa.aaa.Ohpppgh",
"hgppOO.jdaaaaadaj aap aa = addaaaddadaadadaddaX+o+ada a+ooo#o##oX##y+oX+#sXoooXs#XdaaXdgjpaj  jdadpda dadaafaa d daa.aaa.OOpppgh",
"hgppaap daaaaadap aap aa =daddaaaddadaadadaddaaaaaadaaooooo+o++o#++ioo+o#s#oooXXdadXs$*jjjp jj dadpg.................aaapa pppgh",
"h ppppOp        jj  jj  j$j                                        <              d:Xaa p@@        =  p@@p              Oppppp h",
".gfa pl gppppppgOOOOOOOOOOOpppppppppppppppppppppppppppppppppppppppp:pppppppppppppppppppppppppppppppgggggggpppppppppppppplppppp h",
". ooooooooooo+sd  sdddd,,3,,a#oooooooooooooooooooo#sX#oooo#sos#oa#ats#osada#o#aaasas#oooo##fdf#+ooo1XX111111+o+X#+oooooo+++++ss.",
"h s#+++++++#saaa dad  da =aadaX++X++++++sds++++++sadss++++sdXddX Xd-a#+#d d#+#s p;aa#++++#ad d d#++=da =@ aaa+fsfs++++++###### .",
"h apgggjgggpaaaa dad  da =aadaaaaddadaaaadaaaaaaaaadaaaaaaadadda dd-aadad dada @@aaaaaaaaaad d daad=da =@ aaad d daapgggpgggpajh",
"h a >>> >>> aap&&&&&&&&&&&&&&&&&&&&&&&&&&&&&&&&&paada #aa #da Xa  X-a #ad Xaaaf=p&&&&&&&&&&&&&&&&&&&&&&&&&&&&&&&&&pa >>v v>> ajh",
"h asXXXXXXXsaas lllljj@@llll@@@@ll&l@@@@llll@@@ saadajOaajOdajOa jOsajOadjOaaf;ds llll@@@@llllj@@@l&ll@gg@llllj@@ sasXXXsXXXsajh",
"h apgggjgggpaaaXahh%==%hhlh%%%%hhhl%=%%hhhh%%%aXaaada  aa pdad a  psad ad daa;aaa+ahh%%%%hhhl%$%%hhlh%%$$hhhh%=%a+aapgggpgggpajh",
"h a 665 q66 aaaa+s%%==hhhl%%%%hhhh=%=%hhhh%%%s+aaaada  aa pdaa a  pfaadad daaaaaaa+s%%%%hhhh$%$%hhhl%%%$lhhh%%=s+aaa 66q 566 ajh",
"h a 5>v v>5 aaaaa+s%=lhhh=%%%hhhh%=%=hhhh%%%s+aaaa    p   pp  p j p      p     aaaa+s%%hhhh%=%$hhhh$%%%llhh%%%h+aaaa 5>v v>5 ajh",
"h a w>v v>w aaaaaa+sllhh%=%%hhhh%%=%hhhh%%%s+aaaa p.......h.....h.h......h....p aaaa+shhhh%%%%lhhh%$%%hllh%%%sadaaaa w>v v>w ajh",
"h a >vv vv> aaaaaaa+faoo+o+oooooooXoXooooo++aaaa p.hhhhhhhhhhhhhhhhhhhhhhhhhhh.p aaaa+ooooooo+ss+ooXoooss#ooo+ daaaa >vv vv> ajh",
"h asXXXXXXXsaaaaaaad  XXadaX#####XdadaX##Xaaaaa p.hhh #aa #da Xa  X-a #ad Xjhhh.p aaaa#######d da## d#d  d###d daaaasXXXsXXXsajh",
"h aaaaaaaaaaaaaaaaad  adadaaaaaaaadadaaaaaaaaa p.hhgpjOaajOdajOa jOsajOadjOppgh..p aaaaaaaaaad daad dad  daaad daaddddd d ddddjh",
"h.OOhhhOhhhOOOOOOOOOOOOOOOOOOOOOOOOOOOOOOOOOOOOOOhlhhhhhhhhhhhhhhhhhhhhhhhhhhhlhOOOOOOOOOOOOOOOOOOOOOOOOOOOOOOOOOOhhhhhhhhhhhhhh",
"&&llllllllllllllllllllllllllllllllllllllllllllllllulllllllllllllllllllllllllllullllllllllllllllllllllllllllllllllllllllllllllll&"
};
