/* XPM */
static char *c02a2db425a040eabd07b63bb20f3c33B58E6pr25Yuu6gSr[] = {
/* columns rows colors chars-per-pixel */
"32 32 105 2 ",
"   c #020101",
".  c #0A0402",
"X  c #0C0A06",
"o  c #0E0D09",
"O  c #120E07",
"+  c #100E09",
"@  c #13110D",
"#  c #19150C",
"$  c #161612",
"%  c #181710",
"&  c #1B1A14",
"*  c #1D1D19",
"=  c #220101",
"-  c #22110A",
";  c #251B0F",
":  c #34180D",
">  c #221D12",
",  c #1F2016",
"<  c #232115",
"1  c #2D2011",
"2  c #24241A",
"3  c #2A261B",
"4  c #262A19",
"5  c #2C2B1C",
"6  c #332D1B",
"7  c #3A2C1B",
"8  c #33311E",
"9  c #3C331E",
"0  c #2D2D22",
"q  c #2F3122",
"w  c #333424",
"e  c #3B3522",
"r  c #353925",
"t  c #3B3B25",
"y  c #353629",
"u  c #363A2B",
"i  c #3A3C2C",
"p  c #3C3E30",
"a  c #412513",
"s  c #482613",
"d  c #432E1F",
"f  c #4A2E1D",
"g  c #51331B",
"h  c #5F311D",
"j  c #443722",
"k  c #483520",
"l  c #403F24",
"z  c #413D2E",
"x  c #523124",
"c  c #3D412C",
"v  c #3E482A",
"b  c #3E4131",
"n  c #42442E",
"m  c #4C432B",
"M  c #44482D",
"N  c #424532",
"B  c #4B4433",
"V  c #454A34",
"C  c #494D34",
"Z  c #474A39",
"A  c #4A4D39",
"S  c #554532",
"D  c #524C32",
"F  c #5E4F3C",
"G  c #4C5136",
"H  c #4E533B",
"J  c #52553D",
"K  c #5C513F",
"L  c #54593E",
"P  c #585A3F",
"I  c #674624",
"U  c #6E5536",
"Y  c #504F41",
"T  c #545641",
"R  c #5A5744",
"E  c #565B41",
"W  c #595D44",
"Q  c #5A5B49",
"!  c #605942",
"~  c #6A5E4B",
"^  c #765846",
"/  c #5C6146",
"(  c #5E6449",
")  c #61664A",
"_  c #696449",
"`  c #64694D",
"'  c #71634D",
"]  c #666B52",
"[  c #6A6E52",
"{  c #756B55",
"}  c #7C6855",
"|  c #6C7155",
" . c #7D7056",
".. c #72755A",
"X. c #7D7259",
"o. c #75785C",
"O. c #7A795E",
"+. c #8A634F",
"@. c #946D56",
"#. c #857864",
"$. c #817E69",
"%. c #8D7D68",
"&. c #8B826C",
"*. c #958468",
"=. c #968773",
/* pixels */
"0 2 $ y y u i b t i y N J E T 2 * Y 3 w q b Z W Q J W Q Q R T 0 ",
"t p 0 2 q H N p N l i M c V E 4 2 R w i c c E E ` ( ` | ] ) W y ",
"n n i 3 < C T z N 8 < 5 4 0 N < u ( N N M C C G ( / ` | / E J q ",
"A c n V 5 c L A y z n u i C w & u Q G b N H G C J / | | W Z u 2 ",
"J C N W W H / W T Q ] L G L b y p H N b H / E J G E [ ` W T N u ",
"L H G J H H E E E W O.O.( J / b N T V b H H L L E / ] ] / E / N ",
"N c w 0 p b p u b b A H V V Z i b N y 0 c b c p b b V V N V Z u ",
"( / Q p Z ( ~ ) / V b V / [ W J ( Q E u b E W E / E T E Q E A J ",
"( ] ] u A | | ) ) V C H J ../ J / / / i c J P / E E / L L L C L ",
"W ( Q p J | | ` ) J L / / ../ H L / ) N v H J P / ( / L E H M L ",
"( ( ( Z W | }  .| ` ] [ ` | *.X./ ) ) C c H J L / ( ` / / L L / ",
"( ( ( V H ) ^ @.&.o.| ...._ I U o.` / H J { +._ ` ( ( / / L L ( ",
"V V V i i V d 7 F ~ #. .%.R : 7 ' R $.=.%.S x C Z Z A H G V v V ",
"$ $ 2 i i 0 j m i 5 3 e B k h g 6 1 z n t n f J / T H J G H ( V ",
"o 4 y C V V m D Z J N i > > s a O . O 6 C H M E / / W E E E W y ",
"2 i V L J L J ! / ] ` i $   . .   + > 5 M J D / ` ( / E H / E i ",
"5 N H T L L W / / ] o.V $       % 6 6 9 M G G P ` ` ( L J / L c ",
"c N N J J / ] / / ` o.Z @     . < 9 e 6 9 G L ) [ ` ( / / ( / y ",
"Z C V H / T E L E / ..` $ o X O > r c 8 5 C E ( [ ) ( ( / ( / b ",
"c V w i Z C V b N N A E & # # @ 5 c y q 5 r C V M n C H H T b b ",
"A J A H J G C n y 6 y u $ X X o i C G L H C H L G H H b u H T T ",
"L E / / P L C C e 3 r n $     X N H L E W W P / / / E c c ( ( ( ",
"L / ) / L J G t 6 6 l n 2 .   & C J J P L / / / W J H v v ( ( E ",
"/ ( ` ` P J i 6 9 9 M i q - = 5 L L J P W ) / / J H E b b ( ( / ",
"( ( ] ] / J 8 c m 8 L L y 6 : t W / W W / ( ) ` / L G v b ( ( ( ",
"H E E E H N t M n i J J q 8 6 w G J J J H J J L T J Z u v J T J ",
"u 4 * * 0 C A J E Q L P E E A N i p J J V E J A C E / E E W / b ",
"V q 2 o > i G E ` ` K / ..[ L M i V ) Q p / ) H T | o.o.] | E / ",
"J N u & $ , r G P ` / P | L D H n H ) J u L ) n J ] o...| ` C C ",
"L H M 2 3 i i n J P W / | W J L N J ) H b E / V M / [ | ( L G C ",
"L V V r c L L H W W ) ) ] ` W W ) ) ` E i W [ L P / ] o.L C G H ",
"V i c u c P P W L P ) ) ) ) ) / ) ) / J c E / L C J / ) J C G H "
};
